HIERARCHY
ROOT hip
{
	OFFSET 0.000000 0.000000 0.000000 
	CHANNELS 6 Xposition Yposition Zposition Xrotation Zrotation Yrotation
	JOINT abdomen
	{
		OFFSET 0.000000 3.402643 0.000000 
		CHANNELS 3 Xrotation Zrotation Yrotation
		JOINT chest
		{
			OFFSET 0.000000 8.438565 -0.680529 
			CHANNELS 3 Xrotation Zrotation Yrotation
			JOINT neck
			{
				OFFSET 0.000000 10.207942 -0.272212 
				CHANNELS 3 Xrotation Zrotation Yrotation
				JOINT head
				{
					OFFSET 0.000000 3.130431 0.000000 
					CHANNELS 3 Xrotation Zrotation Yrotation
					End Site
					{
						OFFSET 0.000000 3.130435 0.000000 
					}
				}
			}
			JOINT lCollar
			{
				OFFSET 3.470700 6.669187 -0.816635 
				CHANNELS 3 Yrotation Zrotation Xrotation
				JOINT lShldr
				{
					OFFSET 3.198488 0.000000 0.000000 
					CHANNELS 3 Zrotation Yrotation Xrotation
					JOINT lForeArm
					{
						OFFSET 10.139888 0.000000 0.000000 
						CHANNELS 3 Yrotation Zrotation Xrotation
						JOINT lHand
						{
							OFFSET 8.370511 0.000000 0.000000 
							CHANNELS 3 Zrotation Yrotation Xrotation
							End Site
							{
								OFFSET 4.083176 0.000000 0.000000 
							}
						}
					}
				}
			}
			JOINT rCollar
			{
				OFFSET -3.470700 6.669187 -0.816635 
				CHANNELS 3 Yrotation Zrotation Xrotation
				JOINT rShldr
				{
					OFFSET -3.198488 0.000000 0.000000 
					CHANNELS 3 Zrotation Yrotation Xrotation
					JOINT rForeArm
					{
						OFFSET -10.139888 0.000000 0.000000 
						CHANNELS 3 Yrotation Zrotation Xrotation
						JOINT rHand
						{
							OFFSET -8.370511 0.000000 0.000000 
							CHANNELS 3 Zrotation Yrotation Xrotation
							End Site
							{
								OFFSET -4.083176 0.000000 0.000000 
							}
						}
					}
				}
			}
		}
	}
	JOINT lThigh
	{
		OFFSET 5.308129 -1.633274 1.361059 
		CHANNELS 3 Xrotation Zrotation Yrotation
		JOINT lShin
		{
			OFFSET -2.041588 -20.007561 0.000000 
			CHANNELS 3 Xrotation Zrotation Yrotation
			JOINT lFoot
			{
				OFFSET 0.000000 -19.190928 -1.224953 
				CHANNELS 3 Xrotation Yrotation Zrotation
				End Site
				{
					OFFSET 0.000000 -2.449906 4.627600 
				}
			}
		}
	}
	JOINT rThigh
	{
		OFFSET -5.308129 -1.633274 1.361059 
		CHANNELS 3 Xrotation Zrotation Yrotation
		JOINT rShin
		{
			OFFSET 2.041588 -20.007561 0.000000 
			CHANNELS 3 Xrotation Zrotation Yrotation
			JOINT rFoot
			{
				OFFSET 0.000000 -19.190928 -1.224953 
				CHANNELS 3 Xrotation Yrotation Zrotation
				End Site
				{
					OFFSET 0.000000 -2.449906 4.627600 
				}
			}
		}
	}
}
MOTION
Frames: 11
Frame Time: 0.016667
0.732048 43.135265 -0.748101 -8.134767 -4.013672 -81.679787 15.947264 0.000000 0.000000 -16.464840 -2.050781 5.292619 17.980745 -10.235444 16.133921 -11.513674 6.757812 -3.535156 15.455717 -24.995386 -2.716794 -44.911823 17.094280 -48.488285 -6.318597 -1.492271 30.478716 14.541857 11.796242 -5.459101 28.876348 19.271696 -1.619929 46.283901 -4.349516 -2.287443 -5.706243 12.566953 28.461334 -5.736991 -12.247997 -5.136173 -13.609409 -2.324390 11.452530 60.247944 -1.282175 11.677250 -3.652743 0.399787 -1.440617 -20.913017 3.316804 19.525248 65.067810 -6.841506 -3.716038 -1.747579 -0.298742 3.306183 
0.732048 43.089905 -0.809095 -7.832032 -4.189453 -81.542969 15.947264 0.000000 0.000000 -16.435543 -1.992188 5.360989 18.022873 -9.400514 16.037994 -11.298830 6.552733 -3.798828 15.789157 -24.572443 -2.573504 -45.868755 17.069214 -48.133682 -6.582132 -1.779490 30.575871 14.581979 11.689382 -5.471067 28.993814 19.791523 -1.591393 45.779354 -4.211883 -2.298177 -5.706288 12.555163 28.343117 -5.697818 -12.374751 -5.133950 -13.750227 -1.944521 10.920838 60.714535 -1.263517 11.364538 -3.653932 0.418703 -1.411605 -20.837973 3.582955 19.061010 65.124931 -6.840626 -3.668838 -1.874939 -0.275139 3.148493 
0.732048 43.007103 -0.926182 -7.255858 -4.511658 -81.309250 15.947264 0.000000 0.000000 -16.376949 -1.816406 5.429377 18.165068 -8.300663 15.862704 -11.162107 6.572265 -4.383648 16.230310 -23.344774 -2.292802 -47.329437 17.054028 -47.983849 -7.102460 -2.051661 31.200516 14.374349 11.393444 -5.527428 29.146917 20.605883 -1.542468 44.992531 -3.849880 -2.591788 -5.724338 12.420437 28.011286 -5.773578 -12.599755 -5.118895 -13.945792 -1.309759 9.834672 61.475513 -1.253576 10.833014 -3.693365 0.405323 -1.374927 -20.641703 4.119907 18.186640 65.178848 -6.840714 -3.545114 -1.892290 -0.293101 2.962803 
0.732048 42.923367 -1.058251 -6.591797 -4.863282 -81.123878 15.947264 0.000000 0.000000 -16.279293 -1.582031 5.439182 18.387766 -7.476695 15.760516 -11.220703 6.943359 -5.028116 16.428858 -22.389072 -2.046267 -48.640251 17.238768 -48.120487 -7.937990 -2.225484 32.131847 13.896433 11.113387 -5.537198 29.269840 21.341219 -1.509303 44.260120 -3.358503 -3.072141 -5.741358 12.214829 27.565056 -5.974879 -12.727773 -5.113221 -14.161951 -0.577440 8.722334 62.248642 -1.176046 10.136610 -3.652891 0.386904 -1.414256 -20.460598 4.730946 17.283316 65.188019 -6.860240 -3.324827 -1.823420 -0.242616 2.814234 
0.703820 42.856804 -1.180986 -5.986328 -5.156250 -80.966797 15.947264 0.000000 0.000000 -16.201170 -1.347656 5.409926 18.574387 -6.914950 15.685744 -11.279297 7.402343 -5.516320 16.346600 -21.711077 -1.919587 -49.799706 17.575024 -48.146530 -9.125322 -2.452598 32.997746 13.319731 10.988544 -5.521896 29.291636 21.886747 -1.550932 43.791641 -2.847621 -3.542640 -5.748337 12.000765 27.100786 -6.195704 -12.797348 -5.106507 -14.428214 0.116602 7.651018 62.950344 -1.194353 9.583179 -3.466359 0.433095 -1.521731 -20.304852 5.257957 16.468697 65.168159 -6.870882 -3.098165 -2.023663 -0.251571 2.612316 
0.674096 42.803383 -1.295490 -5.390625 -5.439454 -80.781250 15.947264 0.000000 0.000000 -16.123045 -1.162109 5.361129 18.713520 -6.172437 15.566178 -11.142578 7.617188 -5.858081 16.219883 -20.799562 -1.767613 -51.177124 17.921392 -47.338703 -10.591527 -2.812900 33.324703 12.943809 10.983744 -5.508330 29.195955 22.402510 -1.600862 43.481144 -2.370090 -3.940917 -5.765238 11.810158 26.726131 -6.435555 -12.895617 -5.120644 -14.707558 0.740545 6.561431 63.599442 -1.175956 9.191713 -3.175868 0.417215 -1.728397 -20.061188 5.737042 15.547693 65.070625 -6.841532 -3.057713 -2.553348 -0.218902 2.144467 
0.639147 42.784203 -1.411912 -4.736328 -5.830078 -80.518562 15.947264 0.000000 0.000000 -16.064451 -0.986328 5.322097 18.911398 -5.120924 15.332474 -10.937501 7.568359 -6.181641 16.099802 -19.497482 -1.602256 -52.909088 18.242496 -45.466068 -12.266709 -3.189826 32.948143 12.848052 10.933712 -5.522355 29.066208 23.113781 -1.655016 43.128227 -2.069892 -4.249941 -5.772349 11.622876 26.449553 -6.858504 -12.928256 -5.137311 -14.911481 1.318295 5.262890 64.236237 -1.147055 8.739171 -2.912537 0.437946 -1.972489 -19.671379 6.206065 14.456452 64.890373 -6.841298 -2.973972 -3.182262 -0.256797 1.509420 
0.600384 42.773460 -1.528746 -4.042969 -6.337891 -80.175781 15.947264 0.000000 0.000000 -15.986326 -0.751953 5.263543 19.281858 -3.996331 15.058583 -10.878907 7.402343 -6.474609 15.902188 -18.051119 -1.391061 -54.790726 18.594837 -42.339031 -14.257596 -3.328363 31.431681 12.879250 10.758307 -5.543548 28.854137 24.020041 -1.719514 42.713604 -1.957441 -4.478236 -5.789811 11.476608 26.291168 -7.485025 -12.737098 -5.146292 -15.008337 1.952990 3.669336 64.825546 -1.116786 8.076369 -2.699250 0.416736 -2.222924 -19.183016 6.694357 13.312519 64.559494 -6.811859 -2.752224 -3.373740 -0.244195 0.976451 
0.560258 42.771454 -1.640481 -3.281250 -6.835937 -79.796082 15.947264 0.000000 0.000000 -15.888668 -0.439453 5.165940 19.656857 -2.945021 14.756625 -10.908205 7.246093 -6.777344 15.595683 -16.544701 -1.209683 -56.822002 18.978054 -37.660961 -16.726494 -2.976066 28.453459 12.794864 10.571693 -5.546554 28.517284 24.963766 -1.819642 42.319256 -1.863717 -4.541501 -5.788643 11.393411 26.217192 -8.169704 -12.527258 -5.197614 -15.074803 2.596946 1.993120 65.315109 -1.030149 7.146501 -2.396024 0.403017 -2.406290 -18.755320 7.242787 12.090679 64.280334 -6.821762 -2.430967 -3.325886 -0.251533 0.931130 
0.522033 42.777748 -1.749518 -2.470703 -7.334037 -79.298042 15.947264 0.000000 0.000000 -15.830075 -0.117188 5.058573 19.842701 -1.764123 14.396058 -10.673829 7.041016 -7.109375 15.240604 -14.841702 -1.045343 -59.162018 19.218615 -31.972490 -19.490667 -2.017672 24.876757 12.583455 10.510494 -5.553939 28.118700 25.000000 -1.891446 41.934044 -1.750033 -4.702695 -5.787093 11.282906 26.112055 -8.766569 -12.492959 -5.224370 -15.185254 3.259034 0.266598 65.726997 -0.953768 6.226424 -2.040683 0.435514 -2.433822 -18.387697 7.782907 10.827355 63.972008 -6.810573 -2.317731 -3.238044 -0.265960 1.347423 
0.488703 42.792519 -1.859563 -1.611328 -7.802735 -78.710938 15.947264 0.000000 0.000000 -15.751951 0.214844 4.990267 19.935093 -0.562792 13.973187 -10.312500 6.933594 -7.557415 14.784764 -13.137155 -0.913472 -61.521461 19.270000 -27.231441 -22.134619 -0.957026 22.702410 12.475665 10.645911 -5.538084 27.757097 25.000000 -1.978715 41.563007 -1.762794 -5.039976 -5.814072 11.122287 25.876390 -9.285246 -12.595058 -5.227129 -15.321873 3.893724 -1.528437 66.062897 -0.905451 5.595361 -1.769621 0.426890 -2.415020 -18.016119 8.329288 9.432074 63.608253 -6.810926 -2.317464 -3.260727 -0.277646 1.765011 
